<svg width="1280" height="720" viewBox="0 0 1280 720" fill="none" xmlns="http://www.w3.org/2000/svg">
<rect width="1280" height="720" fill="#F8FAFC"/>
<rect x="24" y="20" width="1232" height="72" rx="18" fill="#FFFFFF" stroke="#E2E8F0"/>
<text x="52" y="63" fill="#0F172A" font-size="28" font-family="Arial">Dashboard de Faturamento · Visao Executiva</text>
<rect x="24" y="112" width="280" height="120" rx="20" fill="#FFFFFF" stroke="#E2E8F0"/><text x="48" y="150" fill="#64748B" font-size="18" font-family="Arial">Receita Total</text><text x="48" y="195" fill="#0F172A" font-size="34" font-family="Arial">R$ 44.215</text>
<rect x="320" y="112" width="280" height="120" rx="20" fill="#FFFFFF" stroke="#E2E8F0"/><text x="344" y="150" fill="#64748B" font-size="18" font-family="Arial">Custo Total</text><text x="344" y="195" fill="#0F172A" font-size="34" font-family="Arial">R$ 21.248</text>
<rect x="616" y="112" width="280" height="120" rx="20" fill="#FFFFFF" stroke="#E2E8F0"/><text x="640" y="150" fill="#64748B" font-size="18" font-family="Arial">Margem Bruta</text><text x="640" y="195" fill="#0F172A" font-size="34" font-family="Arial">R$ 22.967</text>
<rect x="912" y="112" width="344" height="120" rx="20" fill="#FFFFFF" stroke="#E2E8F0"/><text x="936" y="150" fill="#64748B" font-size="18" font-family="Arial">Margem %</text><text x="936" y="195" fill="#0F172A" font-size="34" font-family="Arial">51,9%</text>
<rect x="24" y="256" width="760" height="210" rx="20" fill="#FFFFFF" stroke="#E2E8F0"/>
<text x="48" y="292" fill="#64748B" font-size="18" font-family="Arial">Evolucao Mensal</text>
<polyline points="70,400 220,360 370,280 520,330 670,250" fill="none" stroke="#0F172A" stroke-width="6" stroke-linecap="round" stroke-linejoin="round"/>
<circle cx="70" cy="400" r="6" fill="#0F172A"/><circle cx="220" cy="360" r="6" fill="#0F172A"/><circle cx="370" cy="280" r="6" fill="#0F172A"/><circle cx="520" cy="330" r="6" fill="#0F172A"/><circle cx="670" cy="250" r="6" fill="#0F172A"/>
<rect x="808" y="256" width="448" height="210" rx="20" fill="#FFFFFF" stroke="#E2E8F0"/>
<text x="832" y="292" fill="#64748B" font-size="18" font-family="Arial">Top 5 Clientes</text>
<rect x="842" y="330" width="340" height="18" rx="9" fill="#0F172A"/><rect x="842" y="365" width="290" height="18" rx="9" fill="#334155"/><rect x="842" y="400" width="250" height="18" rx="9" fill="#475569"/><rect x="842" y="435" width="210" height="18" rx="9" fill="#64748B"/>
<rect x="24" y="490" width="592" height="190" rx="20" fill="#FFFFFF" stroke="#E2E8F0"/>
<text x="48" y="526" fill="#64748B" font-size="18" font-family="Arial">Receita por Categoria</text>
<rect x="70" y="620" width="60" height="28" rx="10" fill="#0F172A"/><rect x="170" y="580" width="60" height="68" rx="10" fill="#334155"/><rect x="270" y="540" width="60" height="108" rx="10" fill="#475569"/><rect x="370" y="500" width="60" height="148" rx="10" fill="#64748B"/>
<rect x="640" y="490" width="616" height="190" rx="20" fill="#FFFFFF" stroke="#E2E8F0"/>
<text x="664" y="526" fill="#64748B" font-size="18" font-family="Arial">Participacao por Canal</text>
<circle cx="840" cy="590" r="70" fill="#CBD5E1"/><path d="M840 520 A70 70 0 0 1 907 625 L840 590 Z" fill="#0F172A"/><path d="M907 625 A70 70 0 0 1 771 625 L840 590 Z" fill="#475569"/><path d="M771 625 A70 70 0 0 1 840 520 L840 590 Z" fill="#94A3B8"/>
</svg>
